<?xml version="1.0" encoding="utf-8" standalone="no"?>
<!DOCTYPE svg PUBLIC "-//W3C//DTD SVG 1.1//EN"
  "http://www.w3.org/Graphics/SVG/1.1/DTD/svg11.dtd">
<!-- Created with matplotlib (http://matplotlib.org/) -->
<svg height="288pt" version="1.1" viewBox="0 0 432 288" width="432pt" xmlns="http://www.w3.org/2000/svg" xmlns:xlink="http://www.w3.org/1999/xlink">
 <defs>
  <style type="text/css">
*{stroke-linecap:butt;stroke-linejoin:round;}
  </style>
 </defs>
 <g id="figure_1">
  <g id="patch_1">
   <path d="M 0 288 
L 432 288 
L 432 0 
L 0 0 
z
" style="fill:#ffffff;"/>
  </g>
  <g id="axes_1">
   <g id="patch_2">
    <path d="M 54 252 
L 388.8 252 
L 388.8 34.56 
L 54 34.56 
z
" style="fill:#ffffff;"/>
   </g>
   <g id="matplotlib.axis_1">
    <g id="xtick_1">
     <g id="line2d_1">
      <defs>
       <path d="M 0 0 
L 0 3.5 
" id="m2f2ce1c5a9" style="stroke:#000000;stroke-width:0.8;"/>
      </defs>
      <g>
       <use style="stroke:#000000;stroke-width:0.8;" x="54" xlink:href="#m2f2ce1c5a9" y="252"/>
      </g>
     </g>
     <g id="text_1">
      <!-- −8 -->
      <defs>
       <path d="M 10.59375 35.5 
L 73.1875 35.5 
L 73.1875 27.203125 
L 10.59375 27.203125 
z
" id="DejaVuSans-2212"/>
       <path d="M 31.78125 34.625 
Q 24.75 34.625 20.71875 30.859375 
Q 16.703125 27.09375 16.703125 20.515625 
Q 16.703125 13.921875 20.71875 10.15625 
Q 24.75 6.390625 31.78125 6.390625 
Q 38.8125 6.390625 42.859375 10.171875 
Q 46.921875 13.96875 46.921875 20.515625 
Q 46.921875 27.09375 42.890625 30.859375 
Q 38.875 34.625 31.78125 34.625 
z
M 21.921875 38.8125 
Q 15.578125 40.375 12.03125 44.71875 
Q 8.5 49.078125 8.5 55.328125 
Q 8.5 64.0625 14.71875 69.140625 
Q 20.953125 74.21875 31.78125 74.21875 
Q 42.671875 74.21875 48.875 69.140625 
Q 55.078125 64.0625 55.078125 55.328125 
Q 55.078125 49.078125 51.53125 44.71875 
Q 48 40.375 41.703125 38.8125 
Q 48.828125 37.15625 52.796875 32.3125 
Q 56.78125 27.484375 56.78125 20.515625 
Q 56.78125 9.90625 50.3125 4.234375 
Q 43.84375 -1.421875 31.78125 -1.421875 
Q 19.734375 -1.421875 13.25 4.234375 
Q 6.78125 9.90625 6.78125 20.515625 
Q 6.78125 27.484375 10.78125 32.3125 
Q 14.796875 37.15625 21.921875 38.8125 
z
M 18.3125 54.390625 
Q 18.3125 48.734375 21.84375 45.5625 
Q 25.390625 42.390625 31.78125 42.390625 
Q 38.140625 42.390625 41.71875 45.5625 
Q 45.3125 48.734375 45.3125 54.390625 
Q 45.3125 60.0625 41.71875 63.234375 
Q 38.140625 66.40625 31.78125 66.40625 
Q 25.390625 66.40625 21.84375 63.234375 
Q 18.3125 60.0625 18.3125 54.390625 
z
" id="DejaVuSans-38"/>
      </defs>
      <g transform="translate(42.943359 270.397656)scale(0.15 -0.15)">
       <use xlink:href="#DejaVuSans-2212"/>
       <use x="83.789062" xlink:href="#DejaVuSans-38"/>
      </g>
     </g>
    </g>
    <g id="xtick_2">
     <g id="line2d_2">
      <g>
       <use style="stroke:#000000;stroke-width:0.8;" x="91.2" xlink:href="#m2f2ce1c5a9" y="252"/>
      </g>
     </g>
     <g id="text_2">
      <!-- −6 -->
      <defs>
       <path d="M 33.015625 40.375 
Q 26.375 40.375 22.484375 35.828125 
Q 18.609375 31.296875 18.609375 23.390625 
Q 18.609375 15.53125 22.484375 10.953125 
Q 26.375 6.390625 33.015625 6.390625 
Q 39.65625 6.390625 43.53125 10.953125 
Q 47.40625 15.53125 47.40625 23.390625 
Q 47.40625 31.296875 43.53125 35.828125 
Q 39.65625 40.375 33.015625 40.375 
z
M 52.59375 71.296875 
L 52.59375 62.3125 
Q 48.875 64.0625 45.09375 64.984375 
Q 41.3125 65.921875 37.59375 65.921875 
Q 27.828125 65.921875 22.671875 59.328125 
Q 17.53125 52.734375 16.796875 39.40625 
Q 19.671875 43.65625 24.015625 45.921875 
Q 28.375 48.1875 33.59375 48.1875 
Q 44.578125 48.1875 50.953125 41.515625 
Q 57.328125 34.859375 57.328125 23.390625 
Q 57.328125 12.15625 50.6875 5.359375 
Q 44.046875 -1.421875 33.015625 -1.421875 
Q 20.359375 -1.421875 13.671875 8.265625 
Q 6.984375 17.96875 6.984375 36.375 
Q 6.984375 53.65625 15.1875 63.9375 
Q 23.390625 74.21875 37.203125 74.21875 
Q 40.921875 74.21875 44.703125 73.484375 
Q 48.484375 72.75 52.59375 71.296875 
z
" id="DejaVuSans-36"/>
      </defs>
      <g transform="translate(80.143359 270.397656)scale(0.15 -0.15)">
       <use xlink:href="#DejaVuSans-2212"/>
       <use x="83.789062" xlink:href="#DejaVuSans-36"/>
      </g>
     </g>
    </g>
    <g id="xtick_3">
     <g id="line2d_3">
      <g>
       <use style="stroke:#000000;stroke-width:0.8;" x="128.4" xlink:href="#m2f2ce1c5a9" y="252"/>
      </g>
     </g>
     <g id="text_3">
      <!-- −4 -->
      <defs>
       <path d="M 37.796875 64.3125 
L 12.890625 25.390625 
L 37.796875 25.390625 
z
M 35.203125 72.90625 
L 47.609375 72.90625 
L 47.609375 25.390625 
L 58.015625 25.390625 
L 58.015625 17.1875 
L 47.609375 17.1875 
L 47.609375 0 
L 37.796875 0 
L 37.796875 17.1875 
L 4.890625 17.1875 
L 4.890625 26.703125 
z
" id="DejaVuSans-34"/>
      </defs>
      <g transform="translate(117.343359 270.397656)scale(0.15 -0.15)">
       <use xlink:href="#DejaVuSans-2212"/>
       <use x="83.789062" xlink:href="#DejaVuSans-34"/>
      </g>
     </g>
    </g>
    <g id="xtick_4">
     <g id="line2d_4">
      <g>
       <use style="stroke:#000000;stroke-width:0.8;" x="165.6" xlink:href="#m2f2ce1c5a9" y="252"/>
      </g>
     </g>
     <g id="text_4">
      <!-- −2 -->
      <defs>
       <path d="M 19.1875 8.296875 
L 53.609375 8.296875 
L 53.609375 0 
L 7.328125 0 
L 7.328125 8.296875 
Q 12.9375 14.109375 22.625 23.890625 
Q 32.328125 33.6875 34.8125 36.53125 
Q 39.546875 41.84375 41.421875 45.53125 
Q 43.3125 49.21875 43.3125 52.78125 
Q 43.3125 58.59375 39.234375 62.25 
Q 35.15625 65.921875 28.609375 65.921875 
Q 23.96875 65.921875 18.8125 64.3125 
Q 13.671875 62.703125 7.8125 59.421875 
L 7.8125 69.390625 
Q 13.765625 71.78125 18.9375 73 
Q 24.125 74.21875 28.421875 74.21875 
Q 39.75 74.21875 46.484375 68.546875 
Q 53.21875 62.890625 53.21875 53.421875 
Q 53.21875 48.921875 51.53125 44.890625 
Q 49.859375 40.875 45.40625 35.40625 
Q 44.1875 33.984375 37.640625 27.21875 
Q 31.109375 20.453125 19.1875 8.296875 
z
" id="DejaVuSans-32"/>
      </defs>
      <g transform="translate(154.543359 270.397656)scale(0.15 -0.15)">
       <use xlink:href="#DejaVuSans-2212"/>
       <use x="83.789062" xlink:href="#DejaVuSans-32"/>
      </g>
     </g>
    </g>
    <g id="xtick_5">
     <g id="line2d_5">
      <g>
       <use style="stroke:#000000;stroke-width:0.8;" x="202.8" xlink:href="#m2f2ce1c5a9" y="252"/>
      </g>
     </g>
     <g id="text_5">
      <!-- 0 -->
      <defs>
       <path d="M 31.78125 66.40625 
Q 24.171875 66.40625 20.328125 58.90625 
Q 16.5 51.421875 16.5 36.375 
Q 16.5 21.390625 20.328125 13.890625 
Q 24.171875 6.390625 31.78125 6.390625 
Q 39.453125 6.390625 43.28125 13.890625 
Q 47.125 21.390625 47.125 36.375 
Q 47.125 51.421875 43.28125 58.90625 
Q 39.453125 66.40625 31.78125 66.40625 
z
M 31.78125 74.21875 
Q 44.046875 74.21875 50.515625 64.515625 
Q 56.984375 54.828125 56.984375 36.375 
Q 56.984375 17.96875 50.515625 8.265625 
Q 44.046875 -1.421875 31.78125 -1.421875 
Q 19.53125 -1.421875 13.0625 8.265625 
Q 6.59375 17.96875 6.59375 36.375 
Q 6.59375 54.828125 13.0625 64.515625 
Q 19.53125 74.21875 31.78125 74.21875 
z
" id="DejaVuSans-30"/>
      </defs>
      <g transform="translate(198.028125 270.397656)scale(0.15 -0.15)">
       <use xlink:href="#DejaVuSans-30"/>
      </g>
     </g>
    </g>
    <g id="xtick_6">
     <g id="line2d_6">
      <g>
       <use style="stroke:#000000;stroke-width:0.8;" x="240" xlink:href="#m2f2ce1c5a9" y="252"/>
      </g>
     </g>
     <g id="text_6">
      <!-- 2 -->
      <g transform="translate(235.228125 270.397656)scale(0.15 -0.15)">
       <use xlink:href="#DejaVuSans-32"/>
      </g>
     </g>
    </g>
    <g id="xtick_7">
     <g id="line2d_7">
      <g>
       <use style="stroke:#000000;stroke-width:0.8;" x="277.2" xlink:href="#m2f2ce1c5a9" y="252"/>
      </g>
     </g>
     <g id="text_7">
      <!-- 4 -->
      <g transform="translate(272.428125 270.397656)scale(0.15 -0.15)">
       <use xlink:href="#DejaVuSans-34"/>
      </g>
     </g>
    </g>
    <g id="xtick_8">
     <g id="line2d_8">
      <g>
       <use style="stroke:#000000;stroke-width:0.8;" x="314.4" xlink:href="#m2f2ce1c5a9" y="252"/>
      </g>
     </g>
     <g id="text_8">
      <!-- 6 -->
      <g transform="translate(309.628125 270.397656)scale(0.15 -0.15)">
       <use xlink:href="#DejaVuSans-36"/>
      </g>
     </g>
    </g>
    <g id="xtick_9">
     <g id="line2d_9">
      <g>
       <use style="stroke:#000000;stroke-width:0.8;" x="351.6" xlink:href="#m2f2ce1c5a9" y="252"/>
      </g>
     </g>
     <g id="text_9">
      <!-- 8 -->
      <g transform="translate(346.828125 270.397656)scale(0.15 -0.15)">
       <use xlink:href="#DejaVuSans-38"/>
      </g>
     </g>
    </g>
    <g id="xtick_10">
     <g id="line2d_10">
      <g>
       <use style="stroke:#000000;stroke-width:0.8;" x="388.8" xlink:href="#m2f2ce1c5a9" y="252"/>
      </g>
     </g>
     <g id="text_10">
      <!-- 10 -->
      <defs>
       <path d="M 12.40625 8.296875 
L 28.515625 8.296875 
L 28.515625 63.921875 
L 10.984375 60.40625 
L 10.984375 69.390625 
L 28.421875 72.90625 
L 38.28125 72.90625 
L 38.28125 8.296875 
L 54.390625 8.296875 
L 54.390625 0 
L 12.40625 0 
z
" id="DejaVuSans-31"/>
      </defs>
      <g transform="translate(379.25625 270.397656)scale(0.15 -0.15)">
       <use xlink:href="#DejaVuSans-31"/>
       <use x="63.623047" xlink:href="#DejaVuSans-30"/>
      </g>
     </g>
    </g>
    <g id="text_11">
     <!-- Energy - E$_{VBM}$ (eV) -->
     <defs>
      <path d="M 9.8125 72.90625 
L 55.90625 72.90625 
L 55.90625 64.59375 
L 19.671875 64.59375 
L 19.671875 43.015625 
L 54.390625 43.015625 
L 54.390625 34.71875 
L 19.671875 34.71875 
L 19.671875 8.296875 
L 56.78125 8.296875 
L 56.78125 0 
L 9.8125 0 
z
" id="DejaVuSans-45"/>
      <path d="M 54.890625 33.015625 
L 54.890625 0 
L 45.90625 0 
L 45.90625 32.71875 
Q 45.90625 40.484375 42.875 44.328125 
Q 39.84375 48.1875 33.796875 48.1875 
Q 26.515625 48.1875 22.3125 43.546875 
Q 18.109375 38.921875 18.109375 30.90625 
L 18.109375 0 
L 9.078125 0 
L 9.078125 54.6875 
L 18.109375 54.6875 
L 18.109375 46.1875 
Q 21.34375 51.125 25.703125 53.5625 
Q 30.078125 56 35.796875 56 
Q 45.21875 56 50.046875 50.171875 
Q 54.890625 44.34375 54.890625 33.015625 
z
" id="DejaVuSans-6e"/>
      <path d="M 56.203125 29.59375 
L 56.203125 25.203125 
L 14.890625 25.203125 
Q 15.484375 15.921875 20.484375 11.0625 
Q 25.484375 6.203125 34.421875 6.203125 
Q 39.59375 6.203125 44.453125 7.46875 
Q 49.3125 8.734375 54.109375 11.28125 
L 54.109375 2.78125 
Q 49.265625 0.734375 44.1875 -0.34375 
Q 39.109375 -1.421875 33.890625 -1.421875 
Q 20.796875 -1.421875 13.15625 6.1875 
Q 5.515625 13.8125 5.515625 26.8125 
Q 5.515625 40.234375 12.765625 48.109375 
Q 20.015625 56 32.328125 56 
Q 43.359375 56 49.78125 48.890625 
Q 56.203125 41.796875 56.203125 29.59375 
z
M 47.21875 32.234375 
Q 47.125 39.59375 43.09375 43.984375 
Q 39.0625 48.390625 32.421875 48.390625 
Q 24.90625 48.390625 20.390625 44.140625 
Q 15.875 39.890625 15.1875 32.171875 
z
" id="DejaVuSans-65"/>
      <path d="M 41.109375 46.296875 
Q 39.59375 47.171875 37.8125 47.578125 
Q 36.03125 48 33.890625 48 
Q 26.265625 48 22.1875 43.046875 
Q 18.109375 38.09375 18.109375 28.8125 
L 18.109375 0 
L 9.078125 0 
L 9.078125 54.6875 
L 18.109375 54.6875 
L 18.109375 46.1875 
Q 20.953125 51.171875 25.484375 53.578125 
Q 30.03125 56 36.53125 56 
Q 37.453125 56 38.578125 55.875 
Q 39.703125 55.765625 41.0625 55.515625 
z
" id="DejaVuSans-72"/>
      <path d="M 45.40625 27.984375 
Q 45.40625 37.75 41.375 43.109375 
Q 37.359375 48.484375 30.078125 48.484375 
Q 22.859375 48.484375 18.828125 43.109375 
Q 14.796875 37.75 14.796875 27.984375 
Q 14.796875 18.265625 18.828125 12.890625 
Q 22.859375 7.515625 30.078125 7.515625 
Q 37.359375 7.515625 41.375 12.890625 
Q 45.40625 18.265625 45.40625 27.984375 
z
M 54.390625 6.78125 
Q 54.390625 -7.171875 48.1875 -13.984375 
Q 42 -20.796875 29.203125 -20.796875 
Q 24.46875 -20.796875 20.265625 -20.09375 
Q 16.0625 -19.390625 12.109375 -17.921875 
L 12.109375 -9.1875 
Q 16.0625 -11.328125 19.921875 -12.34375 
Q 23.78125 -13.375 27.78125 -13.375 
Q 36.625 -13.375 41.015625 -8.765625 
Q 45.40625 -4.15625 45.40625 5.171875 
L 45.40625 9.625 
Q 42.625 4.78125 38.28125 2.390625 
Q 33.9375 0 27.875 0 
Q 17.828125 0 11.671875 7.65625 
Q 5.515625 15.328125 5.515625 27.984375 
Q 5.515625 40.671875 11.671875 48.328125 
Q 17.828125 56 27.875 56 
Q 33.9375 56 38.28125 53.609375 
Q 42.625 51.21875 45.40625 46.390625 
L 45.40625 54.6875 
L 54.390625 54.6875 
z
" id="DejaVuSans-67"/>
      <path d="M 32.171875 -5.078125 
Q 28.375 -14.84375 24.75 -17.8125 
Q 21.140625 -20.796875 15.09375 -20.796875 
L 7.90625 -20.796875 
L 7.90625 -13.28125 
L 13.1875 -13.28125 
Q 16.890625 -13.28125 18.9375 -11.515625 
Q 21 -9.765625 23.484375 -3.21875 
L 25.09375 0.875 
L 2.984375 54.6875 
L 12.5 54.6875 
L 29.59375 11.921875 
L 46.6875 54.6875 
L 56.203125 54.6875 
z
" id="DejaVuSans-79"/>
      <path id="DejaVuSans-20"/>
      <path d="M 4.890625 31.390625 
L 31.203125 31.390625 
L 31.203125 23.390625 
L 4.890625 23.390625 
z
" id="DejaVuSans-2d"/>
      <path d="M 20.609375 0 
L 7.8125 72.90625 
L 17.484375 72.90625 
L 28.078125 10.203125 
L 63.484375 72.90625 
L 74.21875 72.90625 
L 32.078125 0 
z
" id="DejaVuSans-Oblique-56"/>
      <path d="M 16.890625 72.90625 
L 42.09375 72.90625 
Q 52.34375 72.90625 57.421875 69.09375 
Q 62.5 65.28125 62.5 57.625 
Q 62.5 50.59375 58.125 45.484375 
Q 53.765625 40.375 46.6875 39.3125 
Q 52.734375 37.9375 55.765625 34.078125 
Q 58.796875 30.21875 58.796875 23.78125 
Q 58.796875 12.796875 50.65625 6.390625 
Q 42.53125 0 28.421875 0 
L 2.6875 0 
z
M 19.28125 34.8125 
L 14.109375 8.109375 
L 29.984375 8.109375 
Q 38.921875 8.109375 43.75 12.203125 
Q 48.578125 16.3125 48.578125 23.78125 
Q 48.578125 29.546875 45.375 32.171875 
Q 42.1875 34.8125 35.109375 34.8125 
z
M 25.09375 64.796875 
L 20.796875 42.828125 
L 35.5 42.828125 
Q 43.359375 42.828125 47.78125 46.234375 
Q 52.203125 49.65625 52.203125 55.71875 
Q 52.203125 60.453125 49.21875 62.625 
Q 46.234375 64.796875 39.703125 64.796875 
z
" id="DejaVuSans-Oblique-42"/>
      <path d="M 16.890625 72.90625 
L 31.6875 72.90625 
L 40.1875 23.78125 
L 68.40625 72.90625 
L 83.59375 72.90625 
L 69.390625 0 
L 59.8125 0 
L 72.21875 63.921875 
L 43.609375 14.015625 
L 33.984375 14.015625 
L 24.703125 64.109375 
L 12.3125 0 
L 2.6875 0 
z
" id="DejaVuSans-Oblique-4d"/>
      <path d="M 31 75.875 
Q 24.46875 64.65625 21.28125 53.65625 
Q 18.109375 42.671875 18.109375 31.390625 
Q 18.109375 20.125 21.3125 9.0625 
Q 24.515625 -2 31 -13.1875 
L 23.1875 -13.1875 
Q 15.875 -1.703125 12.234375 9.375 
Q 8.59375 20.453125 8.59375 31.390625 
Q 8.59375 42.28125 12.203125 53.3125 
Q 15.828125 64.359375 23.1875 75.875 
z
" id="DejaVuSans-28"/>
      <path d="M 28.609375 0 
L 0.78125 72.90625 
L 11.078125 72.90625 
L 34.1875 11.53125 
L 57.328125 72.90625 
L 67.578125 72.90625 
L 39.796875 0 
z
" id="DejaVuSans-56"/>
      <path d="M 8.015625 75.875 
L 15.828125 75.875 
Q 23.140625 64.359375 26.78125 53.3125 
Q 30.421875 42.28125 30.421875 31.390625 
Q 30.421875 20.453125 26.78125 9.375 
Q 23.140625 -1.703125 15.828125 -13.1875 
L 8.015625 -13.1875 
Q 14.5 -2 17.703125 9.0625 
Q 20.90625 20.125 20.90625 31.390625 
Q 20.90625 42.671875 17.703125 53.65625 
Q 14.5 64.65625 8.015625 75.875 
z
" id="DejaVuSans-29"/>
     </defs>
     <g transform="translate(152.775 288.917188)scale(0.15 -0.15)">
      <use transform="translate(0 0.125)" xlink:href="#DejaVuSans-45"/>
      <use transform="translate(63.183594 0.125)" xlink:href="#DejaVuSans-6e"/>
      <use transform="translate(126.5625 0.125)" xlink:href="#DejaVuSans-65"/>
      <use transform="translate(188.085938 0.125)" xlink:href="#DejaVuSans-72"/>
      <use transform="translate(229.199219 0.125)" xlink:href="#DejaVuSans-67"/>
      <use transform="translate(292.675781 0.125)" xlink:href="#DejaVuSans-79"/>
      <use transform="translate(351.855469 0.125)" xlink:href="#DejaVuSans-20"/>
      <use transform="translate(383.642578 0.125)" xlink:href="#DejaVuSans-2d"/>
      <use transform="translate(419.726562 0.125)" xlink:href="#DejaVuSans-20"/>
      <use transform="translate(451.513672 0.125)" xlink:href="#DejaVuSans-45"/>
      <use transform="translate(515.654297 -16.28125)scale(0.7)" xlink:href="#DejaVuSans-Oblique-56"/>
      <use transform="translate(563.540039 -16.28125)scale(0.7)" xlink:href="#DejaVuSans-Oblique-42"/>
      <use transform="translate(611.5625 -16.28125)scale(0.7)" xlink:href="#DejaVuSans-Oblique-4d"/>
      <use transform="translate(674.692383 0.125)" xlink:href="#DejaVuSans-20"/>
      <use transform="translate(706.479492 0.125)" xlink:href="#DejaVuSans-28"/>
      <use transform="translate(745.493164 0.125)" xlink:href="#DejaVuSans-65"/>
      <use transform="translate(807.016602 0.125)" xlink:href="#DejaVuSans-56"/>
      <use transform="translate(875.424805 0.125)" xlink:href="#DejaVuSans-29"/>
     </g>
    </g>
   </g>
   <g id="matplotlib.axis_2">
    <g id="ytick_1">
     <g id="line2d_11">
      <defs>
       <path d="M 0 0 
L -3.5 0 
" id="md7aa598bb7" style="stroke:#000000;stroke-width:0.8;"/>
      </defs>
      <g>
       <use style="stroke:#000000;stroke-width:0.8;" x="54" xlink:href="#md7aa598bb7" y="252"/>
      </g>
     </g>
     <g id="text_12">
      <!-- −2 -->
      <g transform="translate(24.886719 257.698828)scale(0.15 -0.15)">
       <use xlink:href="#DejaVuSans-2212"/>
       <use x="83.789062" xlink:href="#DejaVuSans-32"/>
      </g>
     </g>
    </g>
    <g id="ytick_2">
     <g id="line2d_12">
      <g>
       <use style="stroke:#000000;stroke-width:0.8;" x="54" xlink:href="#md7aa598bb7" y="197.64"/>
      </g>
     </g>
     <g id="text_13">
      <!-- −1 -->
      <g transform="translate(24.886719 203.338828)scale(0.15 -0.15)">
       <use xlink:href="#DejaVuSans-2212"/>
       <use x="83.789062" xlink:href="#DejaVuSans-31"/>
      </g>
     </g>
    </g>
    <g id="ytick_3">
     <g id="line2d_13">
      <g>
       <use style="stroke:#000000;stroke-width:0.8;" x="54" xlink:href="#md7aa598bb7" y="143.28"/>
      </g>
     </g>
     <g id="text_14">
      <!-- 0 -->
      <g transform="translate(37.45625 148.978828)scale(0.15 -0.15)">
       <use xlink:href="#DejaVuSans-30"/>
      </g>
     </g>
    </g>
    <g id="ytick_4">
     <g id="line2d_14">
      <g>
       <use style="stroke:#000000;stroke-width:0.8;" x="54" xlink:href="#md7aa598bb7" y="88.92"/>
      </g>
     </g>
     <g id="text_15">
      <!-- 1 -->
      <g transform="translate(37.45625 94.618828)scale(0.15 -0.15)">
       <use xlink:href="#DejaVuSans-31"/>
      </g>
     </g>
    </g>
    <g id="ytick_5">
     <g id="line2d_15">
      <g>
       <use style="stroke:#000000;stroke-width:0.8;" x="54" xlink:href="#md7aa598bb7" y="34.56"/>
      </g>
     </g>
     <g id="text_16">
      <!-- 2 -->
      <g transform="translate(37.45625 40.258828)scale(0.15 -0.15)">
       <use xlink:href="#DejaVuSans-32"/>
      </g>
     </g>
    </g>
    <g id="text_17">
     <!-- DOS (States/eV/spin/f.u.) -->
     <defs>
      <path d="M 19.671875 64.796875 
L 19.671875 8.109375 
L 31.59375 8.109375 
Q 46.6875 8.109375 53.6875 14.9375 
Q 60.6875 21.78125 60.6875 36.53125 
Q 60.6875 51.171875 53.6875 57.984375 
Q 46.6875 64.796875 31.59375 64.796875 
z
M 9.8125 72.90625 
L 30.078125 72.90625 
Q 51.265625 72.90625 61.171875 64.09375 
Q 71.09375 55.28125 71.09375 36.53125 
Q 71.09375 17.671875 61.125 8.828125 
Q 51.171875 0 30.078125 0 
L 9.8125 0 
z
" id="DejaVuSans-44"/>
      <path d="M 39.40625 66.21875 
Q 28.65625 66.21875 22.328125 58.203125 
Q 16.015625 50.203125 16.015625 36.375 
Q 16.015625 22.609375 22.328125 14.59375 
Q 28.65625 6.59375 39.40625 6.59375 
Q 50.140625 6.59375 56.421875 14.59375 
Q 62.703125 22.609375 62.703125 36.375 
Q 62.703125 50.203125 56.421875 58.203125 
Q 50.140625 66.21875 39.40625 66.21875 
z
M 39.40625 74.21875 
Q 54.734375 74.21875 63.90625 63.9375 
Q 73.09375 53.65625 73.09375 36.375 
Q 73.09375 19.140625 63.90625 8.859375 
Q 54.734375 -1.421875 39.40625 -1.421875 
Q 24.03125 -1.421875 14.8125 8.828125 
Q 5.609375 19.09375 5.609375 36.375 
Q 5.609375 53.65625 14.8125 63.9375 
Q 24.03125 74.21875 39.40625 74.21875 
z
" id="DejaVuSans-4f"/>
      <path d="M 53.515625 70.515625 
L 53.515625 60.890625 
Q 47.90625 63.578125 42.921875 64.890625 
Q 37.9375 66.21875 33.296875 66.21875 
Q 25.25 66.21875 20.875 63.09375 
Q 16.5 59.96875 16.5 54.203125 
Q 16.5 49.359375 19.40625 46.890625 
Q 22.3125 44.4375 30.421875 42.921875 
L 36.375 41.703125 
Q 47.40625 39.59375 52.65625 34.296875 
Q 57.90625 29 57.90625 20.125 
Q 57.90625 9.515625 50.796875 4.046875 
Q 43.703125 -1.421875 29.984375 -1.421875 
Q 24.8125 -1.421875 18.96875 -0.25 
Q 13.140625 0.921875 6.890625 3.21875 
L 6.890625 13.375 
Q 12.890625 10.015625 18.65625 8.296875 
Q 24.421875 6.59375 29.984375 6.59375 
Q 38.421875 6.59375 43.015625 9.90625 
Q 47.609375 13.234375 47.609375 19.390625 
Q 47.609375 24.75 44.3125 27.78125 
Q 41.015625 30.8125 33.5 32.328125 
L 27.484375 33.5 
Q 16.453125 35.6875 11.515625 40.375 
Q 6.59375 45.0625 6.59375 53.421875 
Q 6.59375 63.09375 13.40625 68.65625 
Q 20.21875 74.21875 32.171875 74.21875 
Q 37.3125 74.21875 42.625 73.28125 
Q 47.953125 72.359375 53.515625 70.515625 
z
" id="DejaVuSans-53"/>
      <path d="M 18.3125 70.21875 
L 18.3125 54.6875 
L 36.8125 54.6875 
L 36.8125 47.703125 
L 18.3125 47.703125 
L 18.3125 18.015625 
Q 18.3125 11.328125 20.140625 9.421875 
Q 21.96875 7.515625 27.59375 7.515625 
L 36.8125 7.515625 
L 36.8125 0 
L 27.59375 0 
Q 17.1875 0 13.234375 3.875 
Q 9.28125 7.765625 9.28125 18.015625 
L 9.28125 47.703125 
L 2.6875 47.703125 
L 2.6875 54.6875 
L 9.28125 54.6875 
L 9.28125 70.21875 
z
" id="DejaVuSans-74"/>
      <path d="M 34.28125 27.484375 
Q 23.390625 27.484375 19.1875 25 
Q 14.984375 22.515625 14.984375 16.5 
Q 14.984375 11.71875 18.140625 8.90625 
Q 21.296875 6.109375 26.703125 6.109375 
Q 34.1875 6.109375 38.703125 11.40625 
Q 43.21875 16.703125 43.21875 25.484375 
L 43.21875 27.484375 
z
M 52.203125 31.203125 
L 52.203125 0 
L 43.21875 0 
L 43.21875 8.296875 
Q 40.140625 3.328125 35.546875 0.953125 
Q 30.953125 -1.421875 24.3125 -1.421875 
Q 15.921875 -1.421875 10.953125 3.296875 
Q 6 8.015625 6 15.921875 
Q 6 25.140625 12.171875 29.828125 
Q 18.359375 34.515625 30.609375 34.515625 
L 43.21875 34.515625 
L 43.21875 35.40625 
Q 43.21875 41.609375 39.140625 45 
Q 35.0625 48.390625 27.6875 48.390625 
Q 23 48.390625 18.546875 47.265625 
Q 14.109375 46.140625 10.015625 43.890625 
L 10.015625 52.203125 
Q 14.9375 54.109375 19.578125 55.046875 
Q 24.21875 56 28.609375 56 
Q 40.484375 56 46.34375 49.84375 
Q 52.203125 43.703125 52.203125 31.203125 
z
" id="DejaVuSans-61"/>
      <path d="M 44.28125 53.078125 
L 44.28125 44.578125 
Q 40.484375 46.53125 36.375 47.5 
Q 32.28125 48.484375 27.875 48.484375 
Q 21.1875 48.484375 17.84375 46.4375 
Q 14.5 44.390625 14.5 40.28125 
Q 14.5 37.15625 16.890625 35.375 
Q 19.28125 33.59375 26.515625 31.984375 
L 29.59375 31.296875 
Q 39.15625 29.25 43.1875 25.515625 
Q 47.21875 21.78125 47.21875 15.09375 
Q 47.21875 7.46875 41.1875 3.015625 
Q 35.15625 -1.421875 24.609375 -1.421875 
Q 20.21875 -1.421875 15.453125 -0.5625 
Q 10.6875 0.296875 5.421875 2 
L 5.421875 11.28125 
Q 10.40625 8.6875 15.234375 7.390625 
Q 20.0625 6.109375 24.8125 6.109375 
Q 31.15625 6.109375 34.5625 8.28125 
Q 37.984375 10.453125 37.984375 14.40625 
Q 37.984375 18.0625 35.515625 20.015625 
Q 33.0625 21.96875 24.703125 23.78125 
L 21.578125 24.515625 
Q 13.234375 26.265625 9.515625 29.90625 
Q 5.8125 33.546875 5.8125 39.890625 
Q 5.8125 47.609375 11.28125 51.796875 
Q 16.75 56 26.8125 56 
Q 31.78125 56 36.171875 55.265625 
Q 40.578125 54.546875 44.28125 53.078125 
z
" id="DejaVuSans-73"/>
      <path d="M 25.390625 72.90625 
L 33.6875 72.90625 
L 8.296875 -9.28125 
L 0 -9.28125 
z
" id="DejaVuSans-2f"/>
      <path d="M 18.109375 8.203125 
L 18.109375 -20.796875 
L 9.078125 -20.796875 
L 9.078125 54.6875 
L 18.109375 54.6875 
L 18.109375 46.390625 
Q 20.953125 51.265625 25.265625 53.625 
Q 29.59375 56 35.59375 56 
Q 45.5625 56 51.78125 48.09375 
Q 58.015625 40.1875 58.015625 27.296875 
Q 58.015625 14.40625 51.78125 6.484375 
Q 45.5625 -1.421875 35.59375 -1.421875 
Q 29.59375 -1.421875 25.265625 0.953125 
Q 20.953125 3.328125 18.109375 8.203125 
z
M 48.6875 27.296875 
Q 48.6875 37.203125 44.609375 42.84375 
Q 40.53125 48.484375 33.40625 48.484375 
Q 26.265625 48.484375 22.1875 42.84375 
Q 18.109375 37.203125 18.109375 27.296875 
Q 18.109375 17.390625 22.1875 11.75 
Q 26.265625 6.109375 33.40625 6.109375 
Q 40.53125 6.109375 44.609375 11.75 
Q 48.6875 17.390625 48.6875 27.296875 
z
" id="DejaVuSans-70"/>
      <path d="M 9.421875 54.6875 
L 18.40625 54.6875 
L 18.40625 0 
L 9.421875 0 
z
M 9.421875 75.984375 
L 18.40625 75.984375 
L 18.40625 64.59375 
L 9.421875 64.59375 
z
" id="DejaVuSans-69"/>
      <path d="M 37.109375 75.984375 
L 37.109375 68.5 
L 28.515625 68.5 
Q 23.6875 68.5 21.796875 66.546875 
Q 19.921875 64.59375 19.921875 59.515625 
L 19.921875 54.6875 
L 34.71875 54.6875 
L 34.71875 47.703125 
L 19.921875 47.703125 
L 19.921875 0 
L 10.890625 0 
L 10.890625 47.703125 
L 2.296875 47.703125 
L 2.296875 54.6875 
L 10.890625 54.6875 
L 10.890625 58.5 
Q 10.890625 67.625 15.140625 71.796875 
Q 19.390625 75.984375 28.609375 75.984375 
z
" id="DejaVuSans-66"/>
      <path d="M 10.6875 12.40625 
L 21 12.40625 
L 21 0 
L 10.6875 0 
z
" id="DejaVuSans-2e"/>
      <path d="M 8.5 21.578125 
L 8.5 54.6875 
L 17.484375 54.6875 
L 17.484375 21.921875 
Q 17.484375 14.15625 20.5 10.265625 
Q 23.53125 6.390625 29.59375 6.390625 
Q 36.859375 6.390625 41.078125 11.03125 
Q 45.3125 15.671875 45.3125 23.6875 
L 45.3125 54.6875 
L 54.296875 54.6875 
L 54.296875 0 
L 45.3125 0 
L 45.3125 8.40625 
Q 42.046875 3.421875 37.71875 1 
Q 33.40625 -1.421875 27.6875 -1.421875 
Q 18.265625 -1.421875 13.375 4.4375 
Q 8.5 10.296875 8.5 21.578125 
z
M 31.109375 56 
z
" id="DejaVuSans-75"/>
     </defs>
     <g transform="translate(17.767187 236.698359)rotate(-90)scale(0.15 -0.15)">
      <use xlink:href="#DejaVuSans-44"/>
      <use x="77.001953" xlink:href="#DejaVuSans-4f"/>
      <use x="155.712891" xlink:href="#DejaVuSans-53"/>
      <use x="219.189453" xlink:href="#DejaVuSans-20"/>
      <use x="250.976562" xlink:href="#DejaVuSans-28"/>
      <use x="289.990234" xlink:href="#DejaVuSans-53"/>
      <use x="353.466797" xlink:href="#DejaVuSans-74"/>
      <use x="392.675781" xlink:href="#DejaVuSans-61"/>
      <use x="453.955078" xlink:href="#DejaVuSans-74"/>
      <use x="493.164062" xlink:href="#DejaVuSans-65"/>
      <use x="554.6875" xlink:href="#DejaVuSans-73"/>
      <use x="606.787109" xlink:href="#DejaVuSans-2f"/>
      <use x="640.478516" xlink:href="#DejaVuSans-65"/>
      <use x="702.001953" xlink:href="#DejaVuSans-56"/>
      <use x="770.410156" xlink:href="#DejaVuSans-2f"/>
      <use x="804.101562" xlink:href="#DejaVuSans-73"/>
      <use x="856.201172" xlink:href="#DejaVuSans-70"/>
      <use x="919.677734" xlink:href="#DejaVuSans-69"/>
      <use x="947.460938" xlink:href="#DejaVuSans-6e"/>
      <use x="1010.839844" xlink:href="#DejaVuSans-2f"/>
      <use x="1044.53125" xlink:href="#DejaVuSans-66"/>
      <use x="1079.626953" xlink:href="#DejaVuSans-2e"/>
      <use x="1111.414062" xlink:href="#DejaVuSans-75"/>
      <use x="1174.792969" xlink:href="#DejaVuSans-2e"/>
      <use x="1206.580078" xlink:href="#DejaVuSans-29"/>
     </g>
    </g>
   </g>
   <g id="line2d_16">
    <path clip-path="url(#pfa3d8aaa5b)" d="M 53.721 143.28 
L 74.5158 143.254549 
L 75.2226 142.614498 
L 76.599 140.308139 
L 80.7654 134.149151 
L 81.4536 132.576516 
L 82.8486 128.010004 
L 84.225 121.756973 
L 84.9132 117.707153 
L 86.3082 113.617922 
L 86.9964 115.47785 
L 87.6846 118.929438 
L 88.3914 121.872488 
L 89.0796 122.210336 
L 89.7678 123.594613 
L 91.1628 129.236909 
L 91.851 129.890317 
L 92.5392 129.408143 
L 93.246 126.446067 
L 93.9342 124.822334 
L 94.6224 122.797967 
L 95.3106 118.254287 
L 96.7056 104.975226 
L 97.3938 100.629144 
L 98.082 111.897972 
L 98.7888 120.870362 
L 99.477 119.234398 
L 101.5602 99.599022 
L 102.2484 101.738088 
L 102.9366 101.944656 
L 103.6434 103.809204 
L 104.3316 107.331732 
L 105.0198 108.731502 
L 105.708 102.466512 
L 106.4148 89.403804 
L 107.103 86.049792 
L 107.7912 78.637806 
L 108.4794 88.34922 
L 109.8744 94.42395 
L 110.5626 95.114322 
L 111.2694 81.56781 
L 111.9576 84.946284 
L 112.6458 100.949868 
L 113.334 113.452668 
L 114.0408 113.115636 
L 114.729 114.580638 
L 115.4172 115.46127 
L 116.1054 121.342207 
L 116.8122 123.763129 
L 117.5004 124.311893 
L 118.1886 126.976349 
L 118.8768 125.939704 
L 119.5836 126.459113 
L 120.2718 126.057937 
L 120.96 126.12181 
L 121.6668 125.94215 
L 122.355 127.212815 
L 123.0432 128.084477 
L 123.7314 128.752562 
L 124.4382 127.544139 
L 125.1264 125.081359 
L 125.8146 123.854726 
L 126.5028 118.853334 
L 127.2096 114.800796 
L 127.8978 112.406238 
L 128.586 113.00148 
L 129.2742 112.36275 
L 129.981 109.707264 
L 130.6692 112.971582 
L 132.0642 101.51793 
L 132.7524 100.120878 
L 133.4406 97.992684 
L 134.1288 97.04682 
L 134.8356 98.778186 
L 135.5238 99.922464 
L 136.212 97.682832 
L 136.9002 90.819882 
L 137.607 101.860398 
L 138.2952 100.112724 
L 138.9834 102.254508 
L 139.6716 102.406716 
L 140.3784 100.63458 
L 141.0666 94.065174 
L 141.7548 89.550576 
L 142.443 98.666748 
L 143.1498 96.511374 
L 143.838 91.803798 
L 144.5262 92.053854 
L 145.233 98.789058 
L 145.9212 99.419634 
L 146.6094 105.11928 
L 147.2976 109.465362 
L 148.0044 111.707712 
L 148.6926 110.892312 
L 150.069 128.864543 
L 150.7758 129.220058 
L 151.464 126.707267 
L 152.1522 126.223735 
L 152.8404 121.766215 
L 154.2354 114.667886 
L 154.9236 108.199046 
L 155.6304 104.13319 
L 156.3186 96.162926 
L 157.0068 96.463537 
L 157.695 98.123148 
L 158.4018 100.375011 
L 159.09 97.474633 
L 159.7782 93.745265 
L 160.4664 92.566197 
L 161.1732 103.242501 
L 161.8614 106.14152 
L 163.2378 114.527093 
L 164.6328 130.091449 
L 166.0278 135.674221 
L 166.716 137.187059 
L 167.4042 137.681246 
L 168.0924 137.924942 
L 168.7992 138.36167 
L 169.4874 138.144747 
L 170.1756 138.579273 
L 172.2588 138.450114 
L 173.6352 138.170975 
L 175.0302 138.34982 
L 175.7184 138.662933 
L 176.4252 138.756704 
L 177.8016 137.932362 
L 178.4898 137.110684 
L 179.1966 137.098181 
L 179.8848 137.611339 
L 181.2612 138.973329 
L 181.968 139.313623 
L 182.6562 140.187188 
L 183.3444 140.83611 
L 184.7394 142.627001 
L 185.4276 143.037174 
L 193.0536 143.247911 
L 193.7418 142.858979 
L 194.43 141.913743 
L 195.1368 140.166993 
L 195.825 140.263944 
L 196.5132 139.995433 
L 197.22 140.062554 
L 197.9082 140.811469 
L 199.9914 142.250941 
L 200.6796 142.800912 
L 201.3678 143.129398 
L 202.7628 143.28 
L 202.7628 143.28 
" style="fill:none;stroke:#0000ff;stroke-linecap:square;stroke-width:2.5;"/>
   </g>
   <g id="line2d_17">
    <path clip-path="url(#pfa3d8aaa5b)" d="M 233.955 143.279999 
L 253.3548 143.243356 
L 255.438 143.041291 
L 257.5212 143.022114 
L 267.9186 143.005757 
L 268.6068 142.498059 
L 269.295 142.2701 
L 269.9832 142.248764 
L 270.69 142.422933 
L 272.0664 142.140071 
L 272.7546 142.638606 
L 276.921 143.082399 
L 277.6092 142.993678 
L 279.6924 143.144529 
L 288.0066 143.21617 
L 301.1754 143.214318 
L 305.3418 143.266075 
L 336.534 143.134397 
L 360.7884 143.014288 
L 372.5808 143.170446 
L 375.3522 143.223574 
L 376.7286 143.071287 
L 378.8118 142.649125 
L 381.5832 142.255205 
L 385.7496 141.837911 
L 386.4378 141.734926 
L 387.126 141.438392 
L 388.521 141.702201 
L 389.8974 141.30097 
L 390.6042 141.304259 
L 391.9806 140.855816 
L 393.3756 140.392669 
L 394.0638 140.723177 
L 394.752 140.607934 
L 395.4588 140.666099 
L 396.147 140.897456 
L 398.2302 140.745519 
L 398.9184 140.506281 
L 400.2948 140.559826 
L 401.0016 140.62234 
L 403.0662 140.402997 
L 405.1494 140.579123 
L 405.8562 140.518512 
L 406.5444 140.304334 
L 407.9208 140.145331 
L 409.3158 139.485944 
L 410.004 139.581346 
L 413.4636 139.367711 
L 415.5468 138.848845 
L 416.2536 139.114665 
L 416.9418 138.989637 
L 418.3182 139.203815 
L 419.025 139.200826 
L 420.4014 139.392445 
L 423.861 139.462297 
L 424.5678 139.424245 
L 425.256 139.624834 
L 425.9442 140.038241 
L 430.1106 140.71698 
L 431.487 140.72334 
L 432.1938 140.636908 
L 433 140.675093 
L 433 140.675093 
" style="fill:none;stroke:#0000ff;stroke-linecap:square;stroke-width:2.5;"/>
   </g>
   <g id="line2d_18">
    <path clip-path="url(#pfa3d8aaa5b)" d="M 53.721 143.28 
L 75.9108 143.245326 
L 78.6822 142.866239 
L 80.0772 142.453782 
L 80.7654 142.089733 
L 81.4536 141.479434 
L 82.8486 138.932559 
L 84.225 134.537009 
L 84.9132 124.91991 
L 85.62 119.481192 
L 86.3082 111.536478 
L 86.9964 115.031826 
L 87.6846 120.630906 
L 88.3914 123.999867 
L 89.7678 122.54166 
L 90.4746 124.606796 
L 91.1628 128.297569 
L 91.851 126.814084 
L 92.5392 123.199416 
L 93.9342 108.701604 
L 94.6224 103.287348 
L 95.3106 95.63346 
L 96.7056 54.977616 
L 97.3938 48.81591 
L 98.082 67.831038 
L 98.7888 67.045536 
L 99.477 84.31299 
L 100.1652 86.37867 
L 100.872 82.937682 
L 101.5602 80.746974 
L 102.2484 82.929528 
L 102.9366 84.022164 
L 103.6434 85.731786 
L 104.3316 90.526338 
L 105.0198 98.040249 
L 105.708 117.74439 
L 106.4148 112.860144 
L 107.103 110.481894 
L 107.7912 111.24837 
L 108.4794 116.135334 
L 109.1862 118.948464 
L 109.8744 122.389452 
L 110.5626 124.641043 
L 111.2694 122.398693 
L 112.6458 123.565259 
L 114.0408 126.314244 
L 114.729 127.16226 
L 115.4172 127.46124 
L 116.1054 131.47627 
L 116.8122 134.000476 
L 117.5004 135.471186 
L 118.1886 137.325406 
L 118.8768 137.230819 
L 120.2718 138.804269 
L 120.96 139.53215 
L 121.6668 140.008072 
L 122.355 140.211922 
L 124.4382 140.232035 
L 125.1264 140.101027 
L 125.8146 139.76019 
L 126.5028 138.837701 
L 127.2096 138.089435 
L 127.8978 137.553718 
L 129.981 136.89868 
L 131.3574 136.814422 
L 132.0642 136.205861 
L 132.7524 136.19961 
L 133.4406 136.407537 
L 134.1288 136.809257 
L 134.8356 137.411023 
L 135.5238 138.194622 
L 136.212 138.27888 
L 136.9002 137.661079 
L 137.607 138.707237 
L 138.9834 139.444358 
L 140.3784 139.740349 
L 141.7548 139.578356 
L 142.443 140.559554 
L 143.1498 140.400823 
L 143.838 140.068139 
L 144.5262 139.86293 
L 145.233 140.313303 
L 145.9212 140.402453 
L 147.2976 141.125985 
L 148.0044 141.260526 
L 148.6926 141.192848 
L 150.069 141.564127 
L 150.7758 141.321409 
L 151.464 140.747096 
L 152.1522 140.70089 
L 152.8404 140.418761 
L 153.5472 139.961322 
L 154.2354 139.659624 
L 154.9236 139.213328 
L 155.6304 138.896953 
L 156.3186 138.189186 
L 157.0068 138.109005 
L 157.695 138.287578 
L 158.4018 138.848573 
L 159.09 138.189186 
L 159.7782 137.695325 
L 160.4664 137.874442 
L 161.1732 138.743658 
L 162.5496 139.126352 
L 163.9446 140.429362 
L 164.6328 140.777266 
L 166.0278 139.812104 
L 166.716 138.765946 
L 167.4042 136.349372 
L 168.7992 130.494528 
L 169.4874 126.55071 
L 170.1756 124.215948 
L 172.2588 114.80895 
L 172.947 109.777932 
L 173.6352 107.785638 
L 174.342 109.038636 
L 175.0302 105.611238 
L 175.7184 106.290738 
L 176.4252 106.725618 
L 177.8016 97.283286 
L 178.4898 91.001988 
L 179.1966 87.286482 
L 180.573 94.592466 
L 181.2612 103.80105 
L 181.968 109.204434 
L 182.6562 116.157078 
L 183.3444 120.880962 
L 184.7394 136.740492 
L 185.4276 140.750086 
L 188.199 142.275617 
L 188.8872 142.445846 
L 189.594 142.935358 
L 190.2822 143.18528 
L 191.6586 143.28 
L 193.0536 143.179265 
L 194.43 141.680729 
L 195.1368 140.504922 
L 195.825 140.158649 
L 197.22 140.642725 
L 197.9082 141.178714 
L 199.9914 142.289425 
L 201.3678 142.44234 
L 202.056 142.632918 
L 202.7628 143.28 
L 202.7628 143.28 
" style="fill:none;stroke:#ff0000;stroke-linecap:square;stroke-width:2.5;"/>
   </g>
   <g id="line2d_19">
    <path clip-path="url(#pfa3d8aaa5b)" d="M 233.955 143.27997 
L 268.6068 143.188893 
L 271.3782 143.169225 
L 285.2352 143.140936 
L 288.0066 142.822234 
L 289.4016 142.66141 
L 290.778 142.804812 
L 292.8612 142.960553 
L 294.2562 142.929106 
L 295.6326 142.943213 
L 297.7158 142.644097 
L 299.1108 142.786683 
L 301.1754 142.798398 
L 302.5704 143.185914 
L 307.425 143.167285 
L 338.6172 142.967185 
L 363.5598 143.203969 
L 394.0638 143.199811 
L 397.5234 143.228961 
L 423.861 143.231152 
L 433 143.220836 
L 433 143.220836 
" style="fill:none;stroke:#ff0000;stroke-linecap:square;stroke-width:2.5;"/>
   </g>
   <g id="line2d_20">
    <path clip-path="url(#pfa3d8aaa5b)" d="M 53.721 143.28 
L 75.2226 143.308501 
L 79.3704 143.788293 
L 84.225 144.201375 
L 84.9132 144.434144 
L 86.3082 144.583036 
L 86.9964 144.4738 
L 88.3914 144.051912 
L 92.5392 143.711374 
L 95.3106 143.855971 
L 96.7056 144.223635 
L 98.7888 144.429252 
L 100.872 144.879054 
L 101.5602 144.840377 
L 102.9366 144.509596 
L 103.6434 144.424387 
L 104.3316 144.215481 
L 105.0198 144.191508 
L 106.4148 144.887289 
L 107.103 144.932925 
L 107.7912 145.175479 
L 110.5626 144.474942 
L 111.2694 144.632123 
L 111.9576 144.544414 
L 113.334 144.751743 
L 114.0408 144.863398 
L 114.729 144.824503 
L 115.4172 144.897699 
L 116.8122 144.356219 
L 118.1886 144.164573 
L 120.96 144.480649 
L 121.6668 144.360894 
L 125.8146 145.273137 
L 126.5028 145.701058 
L 127.2096 145.891101 
L 130.6692 145.121907 
L 133.4406 145.046809 
L 136.9002 146.016156 
L 137.607 145.842123 
L 139.6716 145.773711 
L 140.3784 145.726825 
L 141.7548 145.811056 
L 142.443 145.589539 
L 143.838 145.72302 
L 144.5262 145.919912 
L 146.6094 145.49903 
L 147.2976 144.954505 
L 148.0044 144.611168 
L 148.6926 144.536423 
L 150.7758 144.062213 
L 151.464 144.200396 
L 153.5472 144.286339 
L 156.3186 145.286373 
L 157.0068 145.685104 
L 157.695 145.447333 
L 158.4018 145.34182 
L 160.4664 145.614979 
L 161.1732 145.322903 
L 163.2378 145.094374 
L 163.9446 145.039117 
L 164.6328 144.659602 
L 166.0278 144.548545 
L 167.4042 144.437651 
L 168.7992 144.479481 
L 169.4874 144.757559 
L 170.1756 144.862066 
L 170.8638 145.218151 
L 171.5706 145.724814 
L 172.2588 146.485446 
L 175.7184 152.302075 
L 176.4252 151.283885 
L 177.1134 151.825963 
L 177.8016 151.257058 
L 178.4898 150.898935 
L 180.573 149.42037 
L 181.2612 148.189904 
L 181.968 147.938054 
L 182.6562 146.839303 
L 183.3444 146.305351 
L 184.7394 144.794516 
L 186.1158 144.317066 
L 188.199 143.75744 
L 188.8872 143.665886 
L 190.2822 143.329032 
L 192.3654 143.28 
L 193.0536 146.379509 
L 194.43 203.208948 
L 195.1368 269.627836 
L 195.825 259.440626 
L 196.5132 256.231323 
L 197.22 247.74365 
L 197.9082 234.99791 
L 198.5964 235.986514 
L 199.2846 233.68392 
L 200.6796 222.221244 
L 201.3678 218.890264 
L 202.7628 143.28 
L 202.7628 143.28 
" style="fill:none;stroke:#0000ff;stroke-linecap:square;stroke-width:2.5;"/>
   </g>
   <g id="line2d_21">
    <path clip-path="url(#pfa3d8aaa5b)" d="M 233.955 143.280104 
L 246.417 143.367976 
L 249.8952 143.659488 
L 252.6666 144.055297 
L 253.3548 147.179135 
L 254.043 151.756336 
L 254.7498 155.293962 
L 255.438 154.535426 
L 256.1262 154.332448 
L 258.2094 158.65528 
L 258.8976 159.025591 
L 259.5858 159.071526 
L 260.2926 160.509946 
L 260.9808 162.892626 
L 261.669 163.390564 
L 262.3572 162.929183 
L 263.064 163.373277 
L 263.7522 165.961982 
L 264.4404 166.794505 
L 265.1472 166.816249 
L 265.8354 171.730121 
L 266.5236 174.334509 
L 267.2118 178.595789 
L 267.9186 180.04095 
L 268.6068 207.18018 
L 269.9832 273.233016 
L 270.69 274.173444 
L 271.3782 262.00224 
L 272.0664 285.822792 
L 272.7546 233.523036 
L 273.4614 231.22089 
L 274.1496 229.867326 
L 274.8378 208.781082 
L 275.5446 196.911576 
L 276.2328 187.885098 
L 276.921 190.622124 
L 277.6092 219.786264 
L 278.316 206.924688 
L 279.0042 200.322666 
L 279.6924 200.298204 
L 280.3806 199.656756 
L 281.0874 202.842252 
L 282.4638 206.946432 
L 283.152 207.155718 
L 283.8588 207.715626 
L 284.547 193.389048 
L 285.2352 150.677581 
L 285.942 149.679531 
L 286.6302 149.585488 
L 287.3184 148.622773 
L 288.0066 148.307485 
L 288.7134 148.584721 
L 290.0898 146.842537 
L 290.778 146.519421 
L 291.4848 146.333428 
L 292.173 146.340468 
L 292.8612 146.766949 
L 293.5494 147.552152 
L 294.9444 149.460515 
L 295.6326 151.122273 
L 296.3394 155.440522 
L 297.0276 157.953449 
L 297.7158 159.900081 
L 298.404 159.774591 
L 299.1108 159.997141 
L 299.799 159.723465 
L 300.4872 154.223511 
L 301.8822 146.227875 
L 302.5704 144.199244 
L 303.2586 143.761869 
L 308.1132 143.677119 
L 312.2796 143.621742 
L 316.4274 143.546119 
L 336.534 143.68857 
L 357.3288 143.923296 
L 371.1858 143.523288 
L 374.664 143.351834 
L 376.0404 143.44726 
L 382.2714 144.426806 
L 386.4378 144.870057 
L 387.126 145.016122 
L 388.521 144.842578 
L 389.8974 145.21614 
L 390.6042 145.148516 
L 393.3756 145.34905 
L 394.0638 145.33633 
L 394.752 145.756098 
L 395.4588 145.662599 
L 396.147 145.374763 
L 397.5234 145.351116 
L 398.2302 145.510391 
L 398.9184 145.82133 
L 401.6898 146.186357 
L 403.0662 146.559539 
L 403.773 146.578837 
L 405.1494 146.793559 
L 405.8562 146.916684 
L 406.5444 147.225177 
L 407.9208 147.374939 
L 409.3158 147.93376 
L 410.6922 147.96556 
L 411.399 148.00334 
L 412.7754 147.88402 
L 414.1704 147.88402 
L 414.8586 147.944632 
L 415.5468 148.174574 
L 416.2536 147.967735 
L 416.9418 148.116681 
L 418.3182 147.779105 
L 419.7132 147.647826 
L 421.7964 147.464089 
L 423.1728 147.508936 
L 424.5678 147.640759 
L 425.256 147.402119 
L 425.9442 146.944408 
L 430.1106 146.093266 
L 431.487 146.073968 
L 432.882 146.075653 
L 433 146.072741 
L 433 146.072741 
" style="fill:none;stroke:#0000ff;stroke-linecap:square;stroke-width:2.5;"/>
   </g>
   <g id="line2d_22">
    <path clip-path="url(#pfa3d8aaa5b)" d="M 53.721 143.28 
L 82.8486 143.374203 
L 87.6846 143.462133 
L 91.851 143.395857 
L 94.6224 143.586047 
L 96.0174 143.929629 
L 96.7056 144.219966 
L 97.3938 144.368749 
L 98.082 144.202897 
L 98.7888 144.147287 
L 99.477 143.895165 
L 100.872 144.20499 
L 101.5602 144.415037 
L 102.2484 144.228147 
L 105.708 143.965018 
L 107.103 144.485814 
L 107.7912 144.723666 
L 110.5626 144.158376 
L 111.2694 144.348201 
L 111.9576 144.274516 
L 114.729 144.466923 
L 115.4172 144.437596 
L 116.1054 144.161176 
L 117.5004 143.938218 
L 118.8768 143.92827 
L 125.8146 144.239508 
L 127.2096 144.559281 
L 129.2742 144.698959 
L 130.6692 144.635276 
L 132.0642 144.746823 
L 133.4406 144.609781 
L 135.5238 144.646475 
L 136.212 144.812408 
L 138.9834 144.908897 
L 140.3784 145.33807 
L 141.0666 145.792247 
L 141.7548 145.835735 
L 142.443 145.576438 
L 143.838 145.816166 
L 144.5262 146.19886 
L 145.233 146.287467 
L 146.6094 146.241261 
L 148.0044 145.30491 
L 148.6926 145.080131 
L 150.069 144.350403 
L 152.8404 144.114997 
L 153.5472 144.101516 
L 154.9236 144.417864 
L 156.3186 145.119814 
L 157.0068 145.548715 
L 158.4018 145.594105 
L 159.7782 145.884388 
L 160.4664 146.223322 
L 161.1732 145.546268 
L 162.5496 145.453856 
L 163.2378 145.217662 
L 164.6328 144.45173 
L 166.0278 144.234861 
L 166.716 144.130517 
L 168.0924 144.255164 
L 168.7992 144.331458 
L 169.4874 144.558547 
L 171.5706 144.924662 
L 174.342 145.665045 
L 175.7184 146.653038 
L 176.4252 146.906084 
L 177.1134 148.124835 
L 177.8016 149.850493 
L 178.4898 151.127681 
L 179.1966 151.50793 
L 179.8848 150.67894 
L 180.573 149.583586 
L 181.2612 147.913646 
L 181.968 146.918587 
L 183.3444 145.581602 
L 184.0326 144.57635 
L 184.7394 143.897013 
L 185.4276 143.534432 
L 188.8872 143.326024 
L 192.3654 143.28 
L 193.0536 143.327719 
L 194.43 143.786282 
L 195.1368 144.535417 
L 196.5132 144.067377 
L 197.22 143.977711 
L 198.5964 143.565227 
L 199.9914 143.419387 
L 200.6796 143.480742 
L 201.3678 143.683925 
L 202.056 143.753722 
L 202.7628 143.28 
L 202.7628 143.28 
" style="fill:none;stroke:#ff0000;stroke-linecap:square;stroke-width:2.5;"/>
   </g>
   <g id="line2d_23">
    <path clip-path="url(#pfa3d8aaa5b)" d="M 233.955 143.280031 
L 251.9784 143.382545 
L 252.6666 143.398741 
L 254.7498 144.155712 
L 256.1262 144.225701 
L 259.5858 145.027293 
L 260.2926 145.321082 
L 260.9808 145.808284 
L 261.669 146.099925 
L 263.064 146.516594 
L 263.7522 146.922935 
L 265.1472 147.262142 
L 265.8354 147.790521 
L 266.5236 148.09847 
L 267.2118 148.550746 
L 267.9186 148.785037 
L 268.6068 149.900776 
L 269.295 151.315767 
L 269.9832 151.68623 
L 270.69 151.833546 
L 271.3782 151.668835 
L 272.0664 152.550554 
L 272.7546 152.51522 
L 273.4614 154.090301 
L 274.1496 155.142167 
L 274.8378 155.105746 
L 275.5446 154.415374 
L 276.2328 154.378409 
L 276.921 155.636028 
L 277.6092 157.429908 
L 278.316 157.571244 
L 279.0042 158.28336 
L 279.6924 161.373726 
L 280.3806 163.020834 
L 281.0874 167.59251 
L 283.152 176.909814 
L 283.8588 179.652276 
L 284.547 178.94016 
L 285.2352 182.395825 
L 286.6302 225.157032 
L 287.3184 221.454301 
L 288.0066 229.703974 
L 288.7134 248.436702 
L 289.4016 248.491062 
L 290.0898 222.216156 
L 292.173 193.022118 
L 292.8612 188.852706 
L 293.5494 191.165724 
L 294.9444 187.061544 
L 295.6326 194.101164 
L 296.3394 212.841774 
L 297.7158 242.6229 
L 298.404 240.426756 
L 299.1108 239.831514 
L 299.799 242.326366 
L 300.4872 228.219674 
L 301.1754 208.610935 
L 301.8822 175.965037 
L 302.5704 152.726953 
L 303.2586 150.349246 
L 304.6536 149.495794 
L 306.7368 148.546669 
L 308.1132 148.414574 
L 309.5082 148.290089 
L 312.2796 147.614123 
L 314.3442 147.076774 
L 315.7392 146.999583 
L 318.5106 147.140375 
L 319.9056 147.258608 
L 333.0744 146.671249 
L 334.4508 147.105313 
L 335.139 147.049051 
L 335.8458 147.13956 
L 336.534 147.384724 
L 337.9104 146.992244 
L 343.4718 145.21576 
L 346.2432 144.870302 
L 350.391 144.587548 
L 351.786 144.358258 
L 356.6406 144.132474 
L 359.412 143.985049 
L 369.8094 143.579795 
L 373.269 143.433812 
L 375.3522 143.322591 
L 385.0614 143.589254 
L 390.6042 143.571641 
L 393.3756 143.511275 
L 396.147 143.401611 
L 405.1494 143.343052 
L 433 143.351276 
L 433 143.351276 
" style="fill:none;stroke:#ff0000;stroke-linecap:square;stroke-width:2.5;"/>
   </g>
   <g id="line2d_24">
    <path clip-path="url(#pfa3d8aaa5b)" d="M 53.721 143.28 
L 74.5158 143.27537 
L 75.2226 143.158736 
L 77.3058 142.540976 
L 79.3704 142.156651 
L 81.4536 141.735497 
L 84.225 140.866008 
L 84.9132 140.279328 
L 86.3082 139.847302 
L 86.9964 140.154028 
L 88.3914 141.052871 
L 89.7678 141.431081 
L 91.1628 142.165348 
L 92.5392 142.467318 
L 93.9342 142.389311 
L 95.3106 142.294589 
L 96.7056 141.921544 
L 97.3938 141.767637 
L 98.082 142.165457 
L 98.7888 142.34335 
L 100.1652 142.139255 
L 101.5602 141.641182 
L 102.9366 141.920742 
L 105.0198 142.557379 
L 105.708 142.557705 
L 107.103 142.358326 
L 107.7912 142.297035 
L 109.8744 142.590634 
L 110.5626 142.606493 
L 111.2694 142.473732 
L 112.6458 142.543191 
L 114.729 142.474847 
L 116.1054 142.548192 
L 118.8768 142.607893 
L 125.8146 142.469384 
L 127.2096 142.194974 
L 127.8978 142.210059 
L 128.586 142.34297 
L 129.981 142.247839 
L 130.6692 142.483082 
L 133.4406 142.269448 
L 134.1288 142.078372 
L 136.9002 141.90442 
L 137.607 142.167115 
L 141.7548 142.275971 
L 142.443 142.421656 
L 145.9212 142.381022 
L 150.069 142.891788 
L 154.2354 142.737378 
L 157.0068 142.624962 
L 159.09 142.695997 
L 160.4664 142.723258 
L 162.5496 142.869351 
L 163.9446 143.006936 
L 165.321 143.105137 
L 166.716 143.096402 
L 170.8638 142.611087 
L 173.6352 142.660119 
L 175.7184 142.810588 
L 186.8226 143.273532 
L 193.0536 143.279465 
L 194.43 143.055045 
L 195.1368 142.790991 
L 199.9914 143.146913 
L 202.7628 143.28 
L 202.7628 143.28 
" style="fill:none;stroke:#008000;stroke-linecap:square;stroke-width:2.5;"/>
   </g>
   <g id="line2d_25">
    <path clip-path="url(#pfa3d8aaa5b)" d="M 233.955 143.2784 
L 253.3548 142.989745 
L 256.8144 142.762099 
L 265.1472 142.530647 
L 266.5236 142.391758 
L 268.6068 142.247296 
L 269.295 142.066413 
L 270.69 142.139527 
L 272.7546 141.992252 
L 274.1496 141.776674 
L 274.8378 141.441953 
L 275.5446 141.836891 
L 276.2328 142.020166 
L 279.0042 142.189593 
L 279.6924 142.100388 
L 280.3806 142.134146 
L 281.7756 141.889091 
L 284.547 142.150399 
L 285.2352 142.229411 
L 285.942 142.070082 
L 286.6302 141.79937 
L 287.3184 142.158173 
L 288.0066 142.334326 
L 288.7134 142.139527 
L 290.778 142.617392 
L 292.8612 142.639068 
L 294.2562 142.539209 
L 295.6326 142.512573 
L 297.0276 142.310082 
L 299.1108 142.340251 
L 301.1754 142.481452 
L 302.5704 142.756119 
L 306.7368 142.594384 
L 309.5082 142.4858 
L 315.7392 142.50768 
L 330.303 141.748271 
L 332.3676 141.558147 
L 333.0744 141.277649 
L 333.7626 140.597198 
L 334.4508 139.48078 
L 335.139 139.182343 
L 335.8458 138.722322 
L 336.534 138.037657 
L 337.2222 137.962097 
L 339.3054 138.19136 
L 343.4718 139.122819 
L 347.6196 139.487439 
L 349.7028 139.52984 
L 350.391 139.53514 
L 351.786 139.784516 
L 356.6406 140.056996 
L 358.7052 140.133915 
L 364.2666 140.467957 
L 367.038 140.345919 
L 367.7262 140.213688 
L 368.4144 139.937811 
L 369.1026 140.37704 
L 370.4976 140.58619 
L 371.874 140.991988 
L 372.5808 141.233618 
L 373.9572 142.628645 
L 374.664 142.939258 
L 375.3522 143.105722 
L 376.0404 142.935167 
L 377.4354 141.596879 
L 378.1236 140.486711 
L 378.8118 139.697404 
L 379.5 139.126216 
L 381.5832 138.020398 
L 382.9782 137.979492 
L 383.6664 137.840059 
L 384.3546 137.571656 
L 385.0614 137.428146 
L 386.4378 137.602506 
L 387.126 137.408712 
L 387.8328 137.869142 
L 388.521 137.887216 
L 389.2092 136.142668 
L 389.8974 135.134698 
L 390.6042 135.960562 
L 391.2924 135.983393 
L 391.9806 135.654107 
L 392.6688 135.928082 
L 393.3756 136.804365 
L 394.0638 137.32228 
L 394.752 136.839427 
L 396.8352 138.747735 
L 397.5234 139.073487 
L 398.2302 139.26497 
L 398.9184 139.101483 
L 399.6066 139.526442 
L 402.378 140.228365 
L 405.8562 140.925397 
L 407.2326 140.762724 
L 408.6276 140.526802 
L 411.399 141.030311 
L 416.2536 141.50569 
L 416.9418 141.462881 
L 419.7132 141.726391 
L 425.9442 141.916923 
L 430.7988 142.10596 
L 433 142.107295 
L 433 142.107295 
" style="fill:none;stroke:#008000;stroke-linecap:square;stroke-width:2.5;"/>
   </g>
   <g id="line2d_26">
    <path clip-path="url(#pfa3d8aaa5b)" d="M 53.721 143.28 
L 74.5158 143.284596 
L 75.2226 143.40091 
L 77.3058 144.018481 
L 79.3704 144.402806 
L 81.4536 144.824096 
L 84.225 145.69372 
L 84.9132 146.279857 
L 86.3082 146.710252 
L 86.9964 146.407738 
L 88.3914 145.507945 
L 89.7678 145.129735 
L 91.1628 144.394924 
L 92.5392 144.092954 
L 93.9342 144.17096 
L 95.3106 144.264867 
L 96.7056 144.639544 
L 97.3938 144.793654 
L 98.082 144.397995 
L 98.7888 144.218077 
L 100.1652 144.419929 
L 101.5602 144.917731 
L 102.9366 144.639598 
L 105.0198 144.003124 
L 105.708 144.001833 
L 107.103 144.201674 
L 107.7912 144.262965 
L 109.8744 143.96919 
L 110.5626 143.953004 
L 111.2694 144.085547 
L 112.6458 144.016809 
L 115.4172 144.102956 
L 116.8122 143.976814 
L 119.5836 143.958929 
L 123.0432 143.961199 
L 124.4382 143.991097 
L 126.5028 144.213497 
L 127.2096 144.364346 
L 127.8978 144.349669 
L 128.586 144.218661 
L 129.981 144.311889 
L 130.6692 144.080043 
L 133.4406 144.290552 
L 134.1288 144.481084 
L 136.9002 144.653677 
L 137.607 144.393565 
L 141.7548 144.283893 
L 142.443 144.138208 
L 145.9212 144.178978 
L 150.069 143.668076 
L 154.2354 143.822649 
L 157.0068 143.935038 
L 166.0278 143.43267 
L 167.4042 143.55796 
L 170.1756 143.898562 
L 172.2588 143.973294 
L 176.4252 143.714798 
L 188.199 143.283249 
L 193.7418 143.381232 
L 194.43 143.505621 
L 195.1368 143.773032 
L 199.2846 143.481852 
L 202.056 143.285239 
L 202.7628 143.28 
L 202.7628 143.28 
" style="fill:none;stroke:#008000;stroke-linecap:square;stroke-width:2.5;"/>
   </g>
   <g id="line2d_27">
    <path clip-path="url(#pfa3d8aaa5b)" d="M 233.955 143.281603 
L 253.3548 143.57031 
L 256.8144 143.797915 
L 265.1472 144.02957 
L 266.5236 144.167971 
L 268.6068 144.316237 
L 269.295 144.491141 
L 270.69 144.419929 
L 272.7546 144.566891 
L 274.1496 144.783734 
L 274.8378 145.11397 
L 275.5446 144.724712 
L 276.2328 144.540649 
L 279.0042 144.37019 
L 279.6924 144.459 
L 280.3806 144.425691 
L 281.7756 144.670529 
L 284.547 144.408609 
L 285.2352 144.330697 
L 286.6302 144.761038 
L 287.3184 144.399503 
L 288.0066 144.225416 
L 288.7134 144.421016 
L 290.778 143.944959 
L 292.8612 143.92047 
L 294.2562 144.019976 
L 295.6326 144.048515 
L 297.0276 144.249918 
L 299.1108 144.218933 
L 301.1754 144.078277 
L 302.5704 143.805403 
L 306.03 143.926925 
L 310.1964 144.059386 
L 316.4274 144.08412 
L 324.0534 144.421696 
L 328.908 144.642669 
L 332.3676 145.001717 
L 333.0744 145.283166 
L 333.7626 145.963753 
L 334.4508 147.07691 
L 335.139 147.373987 
L 335.8458 147.834145 
L 336.534 148.518537 
L 337.2222 148.597903 
L 339.3054 148.368775 
L 343.4718 147.437181 
L 347.6196 147.072969 
L 349.7028 147.03016 
L 350.391 147.024724 
L 351.786 146.775484 
L 356.6406 146.502869 
L 358.7052 146.426221 
L 364.9548 146.115282 
L 367.038 146.214761 
L 367.7262 146.346855 
L 368.4144 146.623412 
L 369.1026 146.183639 
L 370.4976 145.974353 
L 371.874 145.569507 
L 372.5808 145.327741 
L 373.9572 143.931817 
L 374.664 143.621666 
L 375.3522 143.454686 
L 376.0404 143.62505 
L 377.4354 144.964616 
L 378.1236 146.074376 
L 378.8118 146.864906 
L 379.5 147.437181 
L 381.5832 148.536204 
L 383.6664 148.719805 
L 384.3546 148.986849 
L 385.0614 149.129136 
L 386.4378 148.957358 
L 387.126 149.152375 
L 387.8328 148.692489 
L 388.521 148.681345 
L 389.2092 150.427253 
L 389.8974 151.394725 
L 390.6042 150.59672 
L 391.2924 150.575792 
L 391.9806 150.909154 
L 392.6688 150.619551 
L 393.3756 149.754412 
L 394.0638 149.289498 
L 394.752 149.716224 
L 396.8352 147.811586 
L 397.5234 147.487192 
L 398.2302 147.295573 
L 398.9184 147.459333 
L 399.6066 147.032471 
L 402.378 146.329596 
L 405.8562 145.633244 
L 407.2326 145.796324 
L 408.6276 146.033878 
L 411.399 145.528873 
L 416.2536 145.054718 
L 416.9418 145.097391 
L 419.7132 144.834016 
L 425.9442 144.642941 
L 430.7988 144.45404 
L 433 144.452728 
L 433 144.452728 
" style="fill:none;stroke:#008000;stroke-linecap:square;stroke-width:2.5;"/>
   </g>
   <g id="line2d_28">
    <path clip-path="url(#pfa3d8aaa5b)" d="M 202.8 34.56 
L 202.8 252 
" style="fill:none;stroke:#000000;stroke-dasharray:5.55,2.4;stroke-dashoffset:0;stroke-width:1.5;"/>
   </g>
   <g id="line2d_29">
    <path clip-path="url(#pfa3d8aaa5b)" d="M 388.8 143.28 
L 54 143.28 
" style="fill:none;stroke:#000000;stroke-linecap:square;stroke-width:1.5;"/>
   </g>
   <g id="patch_3">
    <path d="M 54 252 
L 54 34.56 
" style="fill:none;stroke:#000000;stroke-linecap:square;stroke-linejoin:miter;stroke-width:0.8;"/>
   </g>
   <g id="patch_4">
    <path d="M 388.8 252 
L 388.8 34.56 
" style="fill:none;stroke:#000000;stroke-linecap:square;stroke-linejoin:miter;stroke-width:0.8;"/>
   </g>
   <g id="patch_5">
    <path d="M 54 252 
L 388.8 252 
" style="fill:none;stroke:#000000;stroke-linecap:square;stroke-linejoin:miter;stroke-width:0.8;"/>
   </g>
   <g id="patch_6">
    <path d="M 54 34.56 
L 388.8 34.56 
" style="fill:none;stroke:#000000;stroke-linecap:square;stroke-linejoin:miter;stroke-width:0.8;"/>
   </g>
  </g>
 </g>
 <defs>
  <clipPath id="pfa3d8aaa5b">
   <rect height="217.44" width="334.8" x="54" y="34.56"/>
  </clipPath>
 </defs>
</svg>
